<svg xmlns="http://www.w3.org/2000/svg" viewBox="0 0 680 440" role="img" aria-label="Reciprocity-corrected exposure time versus metered exposure time, for four film stocks."><rect width="680" height="440" fill="#f5f4f1"/><line x1="64" y1="28" x2="86" y2="28" stroke="#9b9890" stroke-width="1.25" stroke-dasharray="3 4"/><text x="94" y="32" font-family="'DM Mono', ui-monospace, monospace" font-size="11" fill="#6b6860">Reference (p=1)</text><line x1="215" y1="28" x2="237" y2="28" stroke="#6b6860" stroke-width="1.8" /><text x="245" y="32" font-family="'DM Mono', ui-monospace, monospace" font-size="11" fill="#6b6860">T-Max (0.92)</text><line x1="346.2" y1="28" x2="368.2" y2="28" stroke="#1a1917" stroke-width="2" /><text x="376.2" y="32" font-family="'DM Mono', ui-monospace, monospace" font-size="11" fill="#6b6860">Tri-X (0.82)</text><line x1="477.4" y1="28" x2="499.4" y2="28" stroke="#1a1917" stroke-width="2.4" /><text x="507.4" y="32" font-family="'DM Mono', ui-monospace, monospace" font-size="11" fill="#6b6860">Fomapan (0.70)</text><g font-family="'DM Mono', ui-monospace, monospace" font-size="10" fill="#9b9890"><line x1="64" y1="384" x2="656" y2="384" stroke="#d8d6d1" stroke-width="0.5"/><text x="54" y="387" text-anchor="end">0</text><line x1="64" y1="323.25" x2="656" y2="323.25" stroke="#d8d6d1" stroke-width="0.5"/><text x="54" y="326.25" text-anchor="end">30</text><line x1="64" y1="262.5" x2="656" y2="262.5" stroke="#d8d6d1" stroke-width="0.5"/><text x="54" y="265.5" text-anchor="end">60</text><line x1="64" y1="201.75" x2="656" y2="201.75" stroke="#d8d6d1" stroke-width="0.5"/><text x="54" y="204.75" text-anchor="end">90</text><line x1="64" y1="141" x2="656" y2="141" stroke="#d8d6d1" stroke-width="0.5"/><text x="54" y="144" text-anchor="end">120</text><line x1="64" y1="80.25" x2="656" y2="80.25" stroke="#d8d6d1" stroke-width="0.5"/><text x="54" y="83.25" text-anchor="end">150</text><line x1="64" y1="60" x2="64" y2="384" stroke="#d8d6d1" stroke-width="0.5"/><text x="64" y="400" text-anchor="middle">0</text><line x1="162.66666666666666" y1="60" x2="162.66666666666666" y2="384" stroke="#d8d6d1" stroke-width="0.5"/><text x="162.66666666666666" y="400" text-anchor="middle">5</text><line x1="261.3333333333333" y1="60" x2="261.3333333333333" y2="384" stroke="#d8d6d1" stroke-width="0.5"/><text x="261.3333333333333" y="400" text-anchor="middle">10</text><line x1="360" y1="60" x2="360" y2="384" stroke="#d8d6d1" stroke-width="0.5"/><text x="360" y="400" text-anchor="middle">15</text><line x1="458.66666666666663" y1="60" x2="458.66666666666663" y2="384" stroke="#d8d6d1" stroke-width="0.5"/><text x="458.66666666666663" y="400" text-anchor="middle">20</text><line x1="557.3333333333334" y1="60" x2="557.3333333333334" y2="384" stroke="#d8d6d1" stroke-width="0.5"/><text x="557.3333333333334" y="400" text-anchor="middle">25</text><line x1="656" y1="60" x2="656" y2="384" stroke="#d8d6d1" stroke-width="0.5"/><text x="656" y="400" text-anchor="middle">30</text></g><line x1="64" y1="60" x2="64" y2="384" stroke="#1a1917" stroke-width="1"/><line x1="64" y1="384" x2="656" y2="384" stroke="#1a1917" stroke-width="1"/><text x="360" y="426" text-anchor="middle" font-family="'DM Sans', system-ui, sans-serif" font-size="12" fill="#6b6860">Metered exposure (seconds)</text><text x="20" y="222" transform="rotate(-90 20 222)" text-anchor="middle" font-family="'DM Sans', system-ui, sans-serif" font-size="12" fill="#6b6860">Corrected exposure (seconds)</text><path d="M 64.0 384.0 L 67.0 383.7 L 69.9 383.4 L 72.9 383.1 L 75.8 382.8 L 78.8 382.5 L 81.8 382.2 L 84.7 381.9 L 87.7 381.6 L 90.6 381.3 L 93.6 381.0 L 96.6 380.7 L 99.5 380.4 L 102.5 380.1 L 105.4 379.7 L 108.4 379.4 L 111.4 379.1 L 114.3 378.8 L 117.3 378.5 L 120.2 378.2 L 123.2 377.9 L 126.2 377.6 L 129.1 377.3 L 132.1 377.0 L 135.0 376.7 L 138.0 376.4 L 141.0 376.1 L 143.9 375.8 L 146.9 375.5 L 149.8 375.2 L 152.8 374.9 L 155.8 374.6 L 158.7 374.3 L 161.7 374.0 L 164.6 373.7 L 167.6 373.4 L 170.6 373.1 L 173.5 372.8 L 176.5 372.5 L 179.4 372.2 L 182.4 371.9 L 185.4 371.5 L 188.3 371.2 L 191.3 370.9 L 194.2 370.6 L 197.2 370.3 L 200.2 370.0 L 203.1 369.7 L 206.1 369.4 L 209.0 369.1 L 212.0 368.8 L 215.0 368.5 L 217.9 368.2 L 220.9 367.9 L 223.8 367.6 L 226.8 367.3 L 229.8 367.0 L 232.7 366.7 L 235.7 366.4 L 238.6 366.1 L 241.6 365.8 L 244.6 365.5 L 247.5 365.2 L 250.5 364.9 L 253.4 364.6 L 256.4 364.3 L 259.4 364.0 L 262.3 363.6 L 265.3 363.3 L 268.2 363.0 L 271.2 362.7 L 274.2 362.4 L 277.1 362.1 L 280.1 361.8 L 283.0 361.5 L 286.0 361.2 L 289.0 360.9 L 291.9 360.6 L 294.9 360.3 L 297.8 360.0 L 300.8 359.7 L 303.8 359.4 L 306.7 359.1 L 309.7 358.8 L 312.6 358.5 L 315.6 358.2 L 318.6 357.9 L 321.5 357.6 L 324.5 357.3 L 327.4 357.0 L 330.4 356.7 L 333.4 356.4 L 336.3 356.1 L 339.3 355.8 L 342.2 355.4 L 345.2 355.1 L 348.2 354.8 L 351.1 354.5 L 354.1 354.2 L 357.0 353.9 L 360.0 353.6 L 363.0 353.3 L 365.9 353.0 L 368.9 352.7 L 371.8 352.4 L 374.8 352.1 L 377.8 351.8 L 380.7 351.5 L 383.7 351.2 L 386.6 350.9 L 389.6 350.6 L 392.6 350.3 L 395.5 350.0 L 398.5 349.7 L 401.4 349.4 L 404.4 349.1 L 407.4 348.8 L 410.3 348.5 L 413.3 348.2 L 416.2 347.9 L 419.2 347.6 L 422.2 347.2 L 425.1 346.9 L 428.1 346.6 L 431.0 346.3 L 434.0 346.0 L 437.0 345.7 L 439.9 345.4 L 442.9 345.1 L 445.8 344.8 L 448.8 344.5 L 451.8 344.2 L 454.7 343.9 L 457.7 343.6 L 460.6 343.3 L 463.6 343.0 L 466.6 342.7 L 469.5 342.4 L 472.5 342.1 L 475.4 341.8 L 478.4 341.5 L 481.4 341.2 L 484.3 340.9 L 487.3 340.6 L 490.2 340.3 L 493.2 340.0 L 496.2 339.7 L 499.1 339.3 L 502.1 339.0 L 505.0 338.7 L 508.0 338.4 L 511.0 338.1 L 513.9 337.8 L 516.9 337.5 L 519.8 337.2 L 522.8 336.9 L 525.8 336.6 L 528.7 336.3 L 531.7 336.0 L 534.6 335.7 L 537.6 335.4 L 540.6 335.1 L 543.5 334.8 L 546.5 334.5 L 549.4 334.2 L 552.4 333.9 L 555.4 333.6 L 558.3 333.3 L 561.3 333.0 L 564.2 332.7 L 567.2 332.4 L 570.2 332.1 L 573.1 331.8 L 576.1 331.5 L 579.0 331.1 L 582.0 330.8 L 585.0 330.5 L 587.9 330.2 L 590.9 329.9 L 593.8 329.6 L 596.8 329.3 L 599.8 329.0 L 602.7 328.7 L 605.7 328.4 L 608.6 328.1 L 611.6 327.8 L 614.6 327.5 L 617.5 327.2 L 620.5 326.9 L 623.4 326.6 L 626.4 326.3 L 629.4 326.0 L 632.3 325.7 L 635.3 325.4 L 638.2 325.1 L 641.2 324.8 L 644.2 324.5 L 647.1 324.2 L 650.1 323.9 L 653.0 323.6 L 656.0 323.3" fill="none" stroke="#9b9890" stroke-width="1.25" stroke-dasharray="3 4" stroke-linejoin="round" stroke-linecap="round"/><path d="M 64.0 384.0 L 67.0 383.7 L 69.9 383.5 L 72.9 383.1 L 75.8 382.8 L 78.8 382.5 L 81.8 382.2 L 84.7 381.9 L 87.7 381.5 L 90.6 381.2 L 93.6 380.9 L 96.6 380.5 L 99.5 380.2 L 102.5 379.8 L 105.4 379.5 L 108.4 379.1 L 111.4 378.8 L 114.3 378.4 L 117.3 378.0 L 120.2 377.7 L 123.2 377.3 L 126.2 377.0 L 129.1 376.6 L 132.1 376.2 L 135.0 375.9 L 138.0 375.5 L 141.0 375.1 L 143.9 374.7 L 146.9 374.4 L 149.8 374.0 L 152.8 373.6 L 155.8 373.2 L 158.7 372.9 L 161.7 372.5 L 164.6 372.1 L 167.6 371.7 L 170.6 371.3 L 173.5 371.0 L 176.5 370.6 L 179.4 370.2 L 182.4 369.8 L 185.4 369.4 L 188.3 369.0 L 191.3 368.6 L 194.2 368.3 L 197.2 367.9 L 200.2 367.5 L 203.1 367.1 L 206.1 366.7 L 209.0 366.3 L 212.0 365.9 L 215.0 365.5 L 217.9 365.1 L 220.9 364.7 L 223.8 364.3 L 226.8 363.9 L 229.8 363.5 L 232.7 363.1 L 235.7 362.7 L 238.6 362.3 L 241.6 361.9 L 244.6 361.5 L 247.5 361.1 L 250.5 360.7 L 253.4 360.3 L 256.4 359.9 L 259.4 359.5 L 262.3 359.1 L 265.3 358.7 L 268.2 358.3 L 271.2 357.9 L 274.2 357.5 L 277.1 357.1 L 280.1 356.7 L 283.0 356.3 L 286.0 355.9 L 289.0 355.5 L 291.9 355.1 L 294.9 354.7 L 297.8 354.2 L 300.8 353.8 L 303.8 353.4 L 306.7 353.0 L 309.7 352.6 L 312.6 352.2 L 315.6 351.8 L 318.6 351.4 L 321.5 351.0 L 324.5 350.5 L 327.4 350.1 L 330.4 349.7 L 333.4 349.3 L 336.3 348.9 L 339.3 348.5 L 342.2 348.1 L 345.2 347.6 L 348.2 347.2 L 351.1 346.8 L 354.1 346.4 L 357.0 346.0 L 360.0 345.6 L 363.0 345.1 L 365.9 344.7 L 368.9 344.3 L 371.8 343.9 L 374.8 343.5 L 377.8 343.0 L 380.7 342.6 L 383.7 342.2 L 386.6 341.8 L 389.6 341.4 L 392.6 340.9 L 395.5 340.5 L 398.5 340.1 L 401.4 339.7 L 404.4 339.3 L 407.4 338.8 L 410.3 338.4 L 413.3 338.0 L 416.2 337.6 L 419.2 337.1 L 422.2 336.7 L 425.1 336.3 L 428.1 335.9 L 431.0 335.4 L 434.0 335.0 L 437.0 334.6 L 439.9 334.2 L 442.9 333.7 L 445.8 333.3 L 448.8 332.9 L 451.8 332.4 L 454.7 332.0 L 457.7 331.6 L 460.6 331.2 L 463.6 330.7 L 466.6 330.3 L 469.5 329.9 L 472.5 329.4 L 475.4 329.0 L 478.4 328.6 L 481.4 328.2 L 484.3 327.7 L 487.3 327.3 L 490.2 326.9 L 493.2 326.4 L 496.2 326.0 L 499.1 325.6 L 502.1 325.1 L 505.0 324.7 L 508.0 324.3 L 511.0 323.8 L 513.9 323.4 L 516.9 323.0 L 519.8 322.5 L 522.8 322.1 L 525.8 321.7 L 528.7 321.2 L 531.7 320.8 L 534.6 320.4 L 537.6 319.9 L 540.6 319.5 L 543.5 319.1 L 546.5 318.6 L 549.4 318.2 L 552.4 317.8 L 555.4 317.3 L 558.3 316.9 L 561.3 316.4 L 564.2 316.0 L 567.2 315.6 L 570.2 315.1 L 573.1 314.7 L 576.1 314.3 L 579.0 313.8 L 582.0 313.4 L 585.0 312.9 L 587.9 312.5 L 590.9 312.1 L 593.8 311.6 L 596.8 311.2 L 599.8 310.7 L 602.7 310.3 L 605.7 309.9 L 608.6 309.4 L 611.6 309.0 L 614.6 308.5 L 617.5 308.1 L 620.5 307.7 L 623.4 307.2 L 626.4 306.8 L 629.4 306.3 L 632.3 305.9 L 635.3 305.4 L 638.2 305.0 L 641.2 304.6 L 644.2 304.1 L 647.1 303.7 L 650.1 303.2 L 653.0 302.8 L 656.0 302.3" fill="none" stroke="#6b6860" stroke-width="1.8"  stroke-linejoin="round" stroke-linecap="round"/><path d="M 64.0 384.0 L 67.0 383.8 L 69.9 383.5 L 72.9 383.2 L 75.8 382.9 L 78.8 382.6 L 81.8 382.2 L 84.7 381.9 L 87.7 381.5 L 90.6 381.1 L 93.6 380.7 L 96.6 380.3 L 99.5 379.9 L 102.5 379.4 L 105.4 379.0 L 108.4 378.6 L 111.4 378.1 L 114.3 377.7 L 117.3 377.2 L 120.2 376.7 L 123.2 376.3 L 126.2 375.8 L 129.1 375.3 L 132.1 374.8 L 135.0 374.3 L 138.0 373.9 L 141.0 373.4 L 143.9 372.9 L 146.9 372.3 L 149.8 371.8 L 152.8 371.3 L 155.8 370.8 L 158.7 370.3 L 161.7 369.8 L 164.6 369.2 L 167.6 368.7 L 170.6 368.2 L 173.5 367.6 L 176.5 367.1 L 179.4 366.5 L 182.4 366.0 L 185.4 365.4 L 188.3 364.9 L 191.3 364.3 L 194.2 363.8 L 197.2 363.2 L 200.2 362.6 L 203.1 362.1 L 206.1 361.5 L 209.0 360.9 L 212.0 360.4 L 215.0 359.8 L 217.9 359.2 L 220.9 358.6 L 223.8 358.0 L 226.8 357.5 L 229.8 356.9 L 232.7 356.3 L 235.7 355.7 L 238.6 355.1 L 241.6 354.5 L 244.6 353.9 L 247.5 353.3 L 250.5 352.7 L 253.4 352.1 L 256.4 351.5 L 259.4 350.8 L 262.3 350.2 L 265.3 349.6 L 268.2 349.0 L 271.2 348.4 L 274.2 347.8 L 277.1 347.1 L 280.1 346.5 L 283.0 345.9 L 286.0 345.2 L 289.0 344.6 L 291.9 344.0 L 294.9 343.3 L 297.8 342.7 L 300.8 342.1 L 303.8 341.4 L 306.7 340.8 L 309.7 340.1 L 312.6 339.5 L 315.6 338.9 L 318.6 338.2 L 321.5 337.6 L 324.5 336.9 L 327.4 336.3 L 330.4 335.6 L 333.4 334.9 L 336.3 334.3 L 339.3 333.6 L 342.2 333.0 L 345.2 332.3 L 348.2 331.6 L 351.1 331.0 L 354.1 330.3 L 357.0 329.6 L 360.0 329.0 L 363.0 328.3 L 365.9 327.6 L 368.9 326.9 L 371.8 326.3 L 374.8 325.6 L 377.8 324.9 L 380.7 324.2 L 383.7 323.5 L 386.6 322.9 L 389.6 322.2 L 392.6 321.5 L 395.5 320.8 L 398.5 320.1 L 401.4 319.4 L 404.4 318.7 L 407.4 318.0 L 410.3 317.3 L 413.3 316.6 L 416.2 316.0 L 419.2 315.3 L 422.2 314.6 L 425.1 313.9 L 428.1 313.2 L 431.0 312.4 L 434.0 311.7 L 437.0 311.0 L 439.9 310.3 L 442.9 309.6 L 445.8 308.9 L 448.8 308.2 L 451.8 307.5 L 454.7 306.8 L 457.7 306.1 L 460.6 305.4 L 463.6 304.6 L 466.6 303.9 L 469.5 303.2 L 472.5 302.5 L 475.4 301.8 L 478.4 301.0 L 481.4 300.3 L 484.3 299.6 L 487.3 298.9 L 490.2 298.1 L 493.2 297.4 L 496.2 296.7 L 499.1 296.0 L 502.1 295.2 L 505.0 294.5 L 508.0 293.8 L 511.0 293.0 L 513.9 292.3 L 516.9 291.5 L 519.8 290.8 L 522.8 290.1 L 525.8 289.3 L 528.7 288.6 L 531.7 287.9 L 534.6 287.1 L 537.6 286.4 L 540.6 285.6 L 543.5 284.9 L 546.5 284.1 L 549.4 283.4 L 552.4 282.6 L 555.4 281.9 L 558.3 281.1 L 561.3 280.4 L 564.2 279.6 L 567.2 278.9 L 570.2 278.1 L 573.1 277.4 L 576.1 276.6 L 579.0 275.8 L 582.0 275.1 L 585.0 274.3 L 587.9 273.6 L 590.9 272.8 L 593.8 272.0 L 596.8 271.3 L 599.8 270.5 L 602.7 269.8 L 605.7 269.0 L 608.6 268.2 L 611.6 267.5 L 614.6 266.7 L 617.5 265.9 L 620.5 265.1 L 623.4 264.4 L 626.4 263.6 L 629.4 262.8 L 632.3 262.1 L 635.3 261.3 L 638.2 260.5 L 641.2 259.7 L 644.2 258.9 L 647.1 258.2 L 650.1 257.4 L 653.0 256.6 L 656.0 255.8" fill="none" stroke="#1a1917" stroke-width="2"  stroke-linejoin="round" stroke-linecap="round"/><path d="M 64.0 384.0 L 67.0 383.9 L 69.9 383.6 L 72.9 383.4 L 75.8 383.0 L 78.8 382.7 L 81.8 382.3 L 84.7 381.8 L 87.7 381.4 L 90.6 380.9 L 93.6 380.4 L 96.6 379.9 L 99.5 379.3 L 102.5 378.7 L 105.4 378.2 L 108.4 377.6 L 111.4 376.9 L 114.3 376.3 L 117.3 375.6 L 120.2 375.0 L 123.2 374.3 L 126.2 373.6 L 129.1 372.9 L 132.1 372.1 L 135.0 371.4 L 138.0 370.6 L 141.0 369.8 L 143.9 369.1 L 146.9 368.3 L 149.8 367.5 L 152.8 366.6 L 155.8 365.8 L 158.7 365.0 L 161.7 364.1 L 164.6 363.2 L 167.6 362.4 L 170.6 361.5 L 173.5 360.6 L 176.5 359.7 L 179.4 358.7 L 182.4 357.8 L 185.4 356.9 L 188.3 355.9 L 191.3 355.0 L 194.2 354.0 L 197.2 353.0 L 200.2 352.0 L 203.1 351.0 L 206.1 350.0 L 209.0 349.0 L 212.0 348.0 L 215.0 346.9 L 217.9 345.9 L 220.9 344.9 L 223.8 343.8 L 226.8 342.7 L 229.8 341.7 L 232.7 340.6 L 235.7 339.5 L 238.6 338.4 L 241.6 337.3 L 244.6 336.1 L 247.5 335.0 L 250.5 333.9 L 253.4 332.8 L 256.4 331.6 L 259.4 330.4 L 262.3 329.3 L 265.3 328.1 L 268.2 326.9 L 271.2 325.8 L 274.2 324.6 L 277.1 323.4 L 280.1 322.2 L 283.0 320.9 L 286.0 319.7 L 289.0 318.5 L 291.9 317.3 L 294.9 316.0 L 297.8 314.8 L 300.8 313.5 L 303.8 312.3 L 306.7 311.0 L 309.7 309.7 L 312.6 308.4 L 315.6 307.1 L 318.6 305.8 L 321.5 304.5 L 324.5 303.2 L 327.4 301.9 L 330.4 300.6 L 333.4 299.3 L 336.3 297.9 L 339.3 296.6 L 342.2 295.3 L 345.2 293.9 L 348.2 292.5 L 351.1 291.2 L 354.1 289.8 L 357.0 288.4 L 360.0 287.0 L 363.0 285.7 L 365.9 284.3 L 368.9 282.9 L 371.8 281.5 L 374.8 280.0 L 377.8 278.6 L 380.7 277.2 L 383.7 275.8 L 386.6 274.3 L 389.6 272.9 L 392.6 271.5 L 395.5 270.0 L 398.5 268.6 L 401.4 267.1 L 404.4 265.6 L 407.4 264.1 L 410.3 262.7 L 413.3 261.2 L 416.2 259.7 L 419.2 258.2 L 422.2 256.7 L 425.1 255.2 L 428.1 253.7 L 431.0 252.2 L 434.0 250.6 L 437.0 249.1 L 439.9 247.6 L 442.9 246.1 L 445.8 244.5 L 448.8 243.0 L 451.8 241.4 L 454.7 239.9 L 457.7 238.3 L 460.6 236.7 L 463.6 235.2 L 466.6 233.6 L 469.5 232.0 L 472.5 230.4 L 475.4 228.8 L 478.4 227.2 L 481.4 225.6 L 484.3 224.0 L 487.3 222.4 L 490.2 220.8 L 493.2 219.2 L 496.2 217.5 L 499.1 215.9 L 502.1 214.3 L 505.0 212.6 L 508.0 211.0 L 511.0 209.3 L 513.9 207.7 L 516.9 206.0 L 519.8 204.3 L 522.8 202.7 L 525.8 201.0 L 528.7 199.3 L 531.7 197.6 L 534.6 196.0 L 537.6 194.3 L 540.6 192.6 L 543.5 190.9 L 546.5 189.2 L 549.4 187.4 L 552.4 185.7 L 555.4 184.0 L 558.3 182.3 L 561.3 180.6 L 564.2 178.8 L 567.2 177.1 L 570.2 175.4 L 573.1 173.6 L 576.1 171.9 L 579.0 170.1 L 582.0 168.3 L 585.0 166.6 L 587.9 164.8 L 590.9 163.0 L 593.8 161.3 L 596.8 159.5 L 599.8 157.7 L 602.7 155.9 L 605.7 154.1 L 608.6 152.3 L 611.6 150.5 L 614.6 148.7 L 617.5 146.9 L 620.5 145.1 L 623.4 143.3 L 626.4 141.5 L 629.4 139.6 L 632.3 137.8 L 635.3 136.0 L 638.2 134.1 L 641.2 132.3 L 644.2 130.4 L 647.1 128.6 L 650.1 126.7 L 653.0 124.9 L 656.0 123.0" fill="none" stroke="#1a1917" stroke-width="2.4"  stroke-linejoin="round" stroke-linecap="round"/></svg>