<svg xmlns="http://www.w3.org/2000/svg" viewBox="0 0 680 380" role="img" aria-label="Extra stops of compensation needed versus metered exposure time, for three film stocks."><rect width="680" height="380" fill="#f5f4f1"/><line x1="64" y1="28" x2="86" y2="28" stroke="#6b6860" stroke-width="1.8" /><text x="94" y="32" font-family="'DM Mono', ui-monospace, monospace" font-size="11" fill="#6b6860">T-Max (0.92)</text><line x1="195.2" y1="28" x2="217.2" y2="28" stroke="#1a1917" stroke-width="2" /><text x="225.2" y="32" font-family="'DM Mono', ui-monospace, monospace" font-size="11" fill="#6b6860">Tri-X (0.82)</text><line x1="326.4" y1="28" x2="348.4" y2="28" stroke="#1a1917" stroke-width="2.4" /><text x="356.4" y="32" font-family="'DM Mono', ui-monospace, monospace" font-size="11" fill="#6b6860">Fomapan (0.70)</text><g font-family="'DM Mono', ui-monospace, monospace" font-size="10" fill="#9b9890"><line x1="64" y1="324" x2="656" y2="324" stroke="#d8d6d1" stroke-width="0.5"/><text x="54" y="327" text-anchor="end">0</text><line x1="64" y1="236" x2="656" y2="236" stroke="#d8d6d1" stroke-width="0.5"/><text x="54" y="239" text-anchor="end">+1</text><line x1="64" y1="148" x2="656" y2="148" stroke="#d8d6d1" stroke-width="0.5"/><text x="54" y="151" text-anchor="end">+2</text><line x1="64" y1="60" x2="656" y2="60" stroke="#d8d6d1" stroke-width="0.5"/><text x="54" y="63" text-anchor="end">+3</text><line x1="64" y1="60" x2="64" y2="324" stroke="#d8d6d1" stroke-width="0.5"/><text x="64" y="340" text-anchor="middle">0</text><line x1="162.66666666666666" y1="60" x2="162.66666666666666" y2="324" stroke="#d8d6d1" stroke-width="0.5"/><text x="162.66666666666666" y="340" text-anchor="middle">10</text><line x1="261.3333333333333" y1="60" x2="261.3333333333333" y2="324" stroke="#d8d6d1" stroke-width="0.5"/><text x="261.3333333333333" y="340" text-anchor="middle">20</text><line x1="360" y1="60" x2="360" y2="324" stroke="#d8d6d1" stroke-width="0.5"/><text x="360" y="340" text-anchor="middle">30</text><line x1="458.66666666666663" y1="60" x2="458.66666666666663" y2="324" stroke="#d8d6d1" stroke-width="0.5"/><text x="458.66666666666663" y="340" text-anchor="middle">40</text><line x1="557.3333333333334" y1="60" x2="557.3333333333334" y2="324" stroke="#d8d6d1" stroke-width="0.5"/><text x="557.3333333333334" y="340" text-anchor="middle">50</text><line x1="656" y1="60" x2="656" y2="324" stroke="#d8d6d1" stroke-width="0.5"/><text x="656" y="340" text-anchor="middle">60</text></g><line x1="64" y1="60" x2="64" y2="324" stroke="#1a1917" stroke-width="1"/><line x1="64" y1="324" x2="656" y2="324" stroke="#1a1917" stroke-width="1"/><text x="360" y="366" text-anchor="middle" font-family="'DM Sans', system-ui, sans-serif" font-size="12" fill="#6b6860">Metered exposure (seconds)</text><text x="20" y="192" transform="rotate(-90 20 192)" text-anchor="middle" font-family="'DM Sans', system-ui, sans-serif" font-size="12" fill="#6b6860">Extra stops needed</text><path d="M 73.9 324.0 L 76.8 321.1 L 79.7 318.9 L 82.6 317.0 L 85.5 315.4 L 88.4 314.0 L 91.3 312.8 L 94.2 311.6 L 97.2 310.6 L 100.1 309.7 L 103.0 308.8 L 105.9 308.0 L 108.8 307.3 L 111.7 306.6 L 114.6 305.9 L 117.5 305.3 L 120.4 304.7 L 123.3 304.2 L 126.3 303.7 L 129.2 303.2 L 132.1 302.7 L 135.0 302.2 L 137.9 301.8 L 140.8 301.3 L 143.7 300.9 L 146.6 300.5 L 149.5 300.2 L 152.5 299.8 L 155.4 299.4 L 158.3 299.1 L 161.2 298.7 L 164.1 298.4 L 167.0 298.1 L 169.9 297.8 L 172.8 297.5 L 175.7 297.2 L 178.7 296.9 L 181.6 296.6 L 184.5 296.4 L 187.4 296.1 L 190.3 295.9 L 193.2 295.6 L 196.1 295.4 L 199.0 295.1 L 201.9 294.9 L 204.8 294.7 L 207.8 294.4 L 210.7 294.2 L 213.6 294.0 L 216.5 293.8 L 219.4 293.6 L 222.3 293.4 L 225.2 293.2 L 228.1 293.0 L 231.0 292.8 L 234.0 292.6 L 236.9 292.4 L 239.8 292.2 L 242.7 292.0 L 245.6 291.8 L 248.5 291.7 L 251.4 291.5 L 254.3 291.3 L 257.2 291.2 L 260.1 291.0 L 263.1 290.8 L 266.0 290.7 L 268.9 290.5 L 271.8 290.4 L 274.7 290.2 L 277.6 290.1 L 280.5 289.9 L 283.4 289.8 L 286.3 289.6 L 289.3 289.5 L 292.2 289.3 L 295.1 289.2 L 298.0 289.0 L 300.9 288.9 L 303.8 288.8 L 306.7 288.6 L 309.6 288.5 L 312.5 288.4 L 315.5 288.3 L 318.4 288.1 L 321.3 288.0 L 324.2 287.9 L 327.1 287.8 L 330.0 287.6 L 332.9 287.5 L 335.8 287.4 L 338.7 287.3 L 341.6 287.2 L 344.6 287.0 L 347.5 286.9 L 350.4 286.8 L 353.3 286.7 L 356.2 286.6 L 359.1 286.5 L 362.0 286.4 L 364.9 286.3 L 367.8 286.2 L 370.8 286.1 L 373.7 286.0 L 376.6 285.9 L 379.5 285.7 L 382.4 285.6 L 385.3 285.5 L 388.2 285.4 L 391.1 285.3 L 394.0 285.2 L 397.0 285.2 L 399.9 285.1 L 402.8 285.0 L 405.7 284.9 L 408.6 284.8 L 411.5 284.7 L 414.4 284.6 L 417.3 284.5 L 420.2 284.4 L 423.1 284.3 L 426.1 284.2 L 429.0 284.1 L 431.9 284.1 L 434.8 284.0 L 437.7 283.9 L 440.6 283.8 L 443.5 283.7 L 446.4 283.6 L 449.3 283.5 L 452.3 283.5 L 455.2 283.4 L 458.1 283.3 L 461.0 283.2 L 463.9 283.1 L 466.8 283.1 L 469.7 283.0 L 472.6 282.9 L 475.5 282.8 L 478.4 282.7 L 481.4 282.7 L 484.3 282.6 L 487.2 282.5 L 490.1 282.4 L 493.0 282.4 L 495.9 282.3 L 498.8 282.2 L 501.7 282.1 L 504.6 282.1 L 507.6 282.0 L 510.5 281.9 L 513.4 281.8 L 516.3 281.8 L 519.2 281.7 L 522.1 281.6 L 525.0 281.6 L 527.9 281.5 L 530.8 281.4 L 533.8 281.4 L 536.7 281.3 L 539.6 281.2 L 542.5 281.1 L 545.4 281.1 L 548.3 281.0 L 551.2 280.9 L 554.1 280.9 L 557.0 280.8 L 559.9 280.8 L 562.9 280.7 L 565.8 280.6 L 568.7 280.6 L 571.6 280.5 L 574.5 280.4 L 577.4 280.4 L 580.3 280.3 L 583.2 280.2 L 586.1 280.2 L 589.1 280.1 L 592.0 280.1 L 594.9 280.0 L 597.8 279.9 L 600.7 279.9 L 603.6 279.8 L 606.5 279.8 L 609.4 279.7 L 612.3 279.6 L 615.3 279.6 L 618.2 279.5 L 621.1 279.5 L 624.0 279.4 L 626.9 279.4 L 629.8 279.3 L 632.7 279.2 L 635.6 279.2 L 638.5 279.1 L 641.4 279.1 L 644.4 279.0 L 647.3 279.0 L 650.2 278.9 L 653.1 278.9 L 656.0 278.8" fill="none" stroke="#6b6860" stroke-width="1.8" stroke-linejoin="round" stroke-linecap="round"/><path d="M 73.9 324.0 L 76.8 316.8 L 79.7 311.1 L 82.6 306.3 L 85.5 302.3 L 88.4 298.7 L 91.3 295.6 L 94.2 292.8 L 97.2 290.2 L 100.1 287.9 L 103.0 285.7 L 105.9 283.7 L 108.8 281.8 L 111.7 280.1 L 114.6 278.4 L 117.5 276.9 L 120.4 275.4 L 123.3 274.0 L 126.3 272.7 L 129.2 271.4 L 132.1 270.2 L 135.0 269.0 L 137.9 267.9 L 140.8 266.8 L 143.7 265.8 L 146.6 264.8 L 149.5 263.8 L 152.5 262.9 L 155.4 262.0 L 158.3 261.1 L 161.2 260.3 L 164.1 259.4 L 167.0 258.6 L 169.9 257.9 L 172.8 257.1 L 175.7 256.4 L 178.7 255.6 L 181.6 254.9 L 184.5 254.3 L 187.4 253.6 L 190.3 253.0 L 193.2 252.3 L 196.1 251.7 L 199.0 251.1 L 201.9 250.5 L 204.8 249.9 L 207.8 249.3 L 210.7 248.8 L 213.6 248.2 L 216.5 247.7 L 219.4 247.2 L 222.3 246.7 L 225.2 246.1 L 228.1 245.6 L 231.0 245.2 L 234.0 244.7 L 236.9 244.2 L 239.8 243.7 L 242.7 243.3 L 245.6 242.8 L 248.5 242.4 L 251.4 241.9 L 254.3 241.5 L 257.2 241.1 L 260.1 240.7 L 263.1 240.3 L 266.0 239.9 L 268.9 239.5 L 271.8 239.1 L 274.7 238.7 L 277.6 238.3 L 280.5 237.9 L 283.4 237.6 L 286.3 237.2 L 289.3 236.8 L 292.2 236.5 L 295.1 236.1 L 298.0 235.8 L 300.9 235.4 L 303.8 235.1 L 306.7 234.7 L 309.6 234.4 L 312.5 234.1 L 315.5 233.8 L 318.4 233.4 L 321.3 233.1 L 324.2 232.8 L 327.1 232.5 L 330.0 232.2 L 332.9 231.9 L 335.8 231.6 L 338.7 231.3 L 341.6 231.0 L 344.6 230.7 L 347.5 230.4 L 350.4 230.1 L 353.3 229.9 L 356.2 229.6 L 359.1 229.3 L 362.0 229.0 L 364.9 228.8 L 367.8 228.5 L 370.8 228.2 L 373.7 228.0 L 376.6 227.7 L 379.5 227.4 L 382.4 227.2 L 385.3 226.9 L 388.2 226.7 L 391.1 226.4 L 394.0 226.2 L 397.0 225.9 L 399.9 225.7 L 402.8 225.5 L 405.7 225.2 L 408.6 225.0 L 411.5 224.7 L 414.4 224.5 L 417.3 224.3 L 420.2 224.1 L 423.1 223.8 L 426.1 223.6 L 429.0 223.4 L 431.9 223.2 L 434.8 222.9 L 437.7 222.7 L 440.6 222.5 L 443.5 222.3 L 446.4 222.1 L 449.3 221.9 L 452.3 221.7 L 455.2 221.4 L 458.1 221.2 L 461.0 221.0 L 463.9 220.8 L 466.8 220.6 L 469.7 220.4 L 472.6 220.2 L 475.5 220.0 L 478.4 219.8 L 481.4 219.6 L 484.3 219.4 L 487.2 219.3 L 490.1 219.1 L 493.0 218.9 L 495.9 218.7 L 498.8 218.5 L 501.7 218.3 L 504.6 218.1 L 507.6 217.9 L 510.5 217.8 L 513.4 217.6 L 516.3 217.4 L 519.2 217.2 L 522.1 217.0 L 525.0 216.9 L 527.9 216.7 L 530.8 216.5 L 533.8 216.3 L 536.7 216.2 L 539.6 216.0 L 542.5 215.8 L 545.4 215.7 L 548.3 215.5 L 551.2 215.3 L 554.1 215.2 L 557.0 215.0 L 559.9 214.8 L 562.9 214.7 L 565.8 214.5 L 568.7 214.3 L 571.6 214.2 L 574.5 214.0 L 577.4 213.9 L 580.3 213.7 L 583.2 213.6 L 586.1 213.4 L 589.1 213.2 L 592.0 213.1 L 594.9 212.9 L 597.8 212.8 L 600.7 212.6 L 603.6 212.5 L 606.5 212.3 L 609.4 212.2 L 612.3 212.0 L 615.3 211.9 L 618.2 211.7 L 621.1 211.6 L 624.0 211.4 L 626.9 211.3 L 629.8 211.2 L 632.7 211.0 L 635.6 210.9 L 638.5 210.7 L 641.4 210.6 L 644.4 210.4 L 647.3 210.3 L 650.2 210.2 L 653.1 210.0 L 656.0 209.9" fill="none" stroke="#1a1917" stroke-width="2" stroke-linejoin="round" stroke-linecap="round"/><path d="M 73.9 324.0 L 76.8 309.9 L 79.7 298.8 L 82.6 289.5 L 85.5 281.6 L 88.4 274.7 L 91.3 268.6 L 94.2 263.1 L 97.2 258.1 L 100.1 253.5 L 103.0 249.3 L 105.9 245.3 L 108.8 241.7 L 111.7 238.3 L 114.6 235.0 L 117.5 232.0 L 120.4 229.1 L 123.3 226.4 L 126.3 223.8 L 129.2 221.3 L 132.1 218.9 L 135.0 216.6 L 137.9 214.4 L 140.8 212.3 L 143.7 210.3 L 146.6 208.4 L 149.5 206.5 L 152.5 204.7 L 155.4 202.9 L 158.3 201.2 L 161.2 199.5 L 164.1 197.9 L 167.0 196.4 L 169.9 194.9 L 172.8 193.4 L 175.7 191.9 L 178.7 190.5 L 181.6 189.2 L 184.5 187.9 L 187.4 186.6 L 190.3 185.3 L 193.2 184.0 L 196.1 182.8 L 199.0 181.6 L 201.9 180.5 L 204.8 179.3 L 207.8 178.2 L 210.7 177.1 L 213.6 176.1 L 216.5 175.0 L 219.4 174.0 L 222.3 173.0 L 225.2 172.0 L 228.1 171.0 L 231.0 170.1 L 234.0 169.1 L 236.9 168.2 L 239.8 167.3 L 242.7 166.4 L 245.6 165.5 L 248.5 164.7 L 251.4 163.8 L 254.3 163.0 L 257.2 162.1 L 260.1 161.3 L 263.1 160.5 L 266.0 159.7 L 268.9 159.0 L 271.8 158.2 L 274.7 157.4 L 277.6 156.7 L 280.5 156.0 L 283.4 155.2 L 286.3 154.5 L 289.3 153.8 L 292.2 153.1 L 295.1 152.4 L 298.0 151.7 L 300.9 151.1 L 303.8 150.4 L 306.7 149.7 L 309.6 149.1 L 312.5 148.4 L 315.5 147.8 L 318.4 147.2 L 321.3 146.6 L 324.2 146.0 L 327.1 145.4 L 330.0 144.8 L 332.9 144.2 L 335.8 143.6 L 338.7 143.0 L 341.6 142.4 L 344.6 141.9 L 347.5 141.3 L 350.4 140.7 L 353.3 140.2 L 356.2 139.6 L 359.1 139.1 L 362.0 138.6 L 364.9 138.0 L 367.8 137.5 L 370.8 137.0 L 373.7 136.5 L 376.6 136.0 L 379.5 135.5 L 382.4 135.0 L 385.3 134.5 L 388.2 134.0 L 391.1 133.5 L 394.0 133.0 L 397.0 132.5 L 399.9 132.1 L 402.8 131.6 L 405.7 131.1 L 408.6 130.7 L 411.5 130.2 L 414.4 129.8 L 417.3 129.3 L 420.2 128.9 L 423.1 128.4 L 426.1 128.0 L 429.0 127.5 L 431.9 127.1 L 434.8 126.7 L 437.7 126.3 L 440.6 125.8 L 443.5 125.4 L 446.4 125.0 L 449.3 124.6 L 452.3 124.2 L 455.2 123.8 L 458.1 123.4 L 461.0 123.0 L 463.9 122.6 L 466.8 122.2 L 469.7 121.8 L 472.6 121.4 L 475.5 121.0 L 478.4 120.6 L 481.4 120.2 L 484.3 119.9 L 487.2 119.5 L 490.1 119.1 L 493.0 118.7 L 495.9 118.4 L 498.8 118.0 L 501.7 117.7 L 504.6 117.3 L 507.6 116.9 L 510.5 116.6 L 513.4 116.2 L 516.3 115.9 L 519.2 115.5 L 522.1 115.2 L 525.0 114.8 L 527.9 114.5 L 530.8 114.1 L 533.8 113.8 L 536.7 113.5 L 539.6 113.1 L 542.5 112.8 L 545.4 112.5 L 548.3 112.2 L 551.2 111.8 L 554.1 111.5 L 557.0 111.2 L 559.9 110.9 L 562.9 110.5 L 565.8 110.2 L 568.7 109.9 L 571.6 109.6 L 574.5 109.3 L 577.4 109.0 L 580.3 108.7 L 583.2 108.4 L 586.1 108.1 L 589.1 107.8 L 592.0 107.5 L 594.9 107.2 L 597.8 106.9 L 600.7 106.6 L 603.6 106.3 L 606.5 106.0 L 609.4 105.7 L 612.3 105.4 L 615.3 105.1 L 618.2 104.8 L 621.1 104.5 L 624.0 104.3 L 626.9 104.0 L 629.8 103.7 L 632.7 103.4 L 635.6 103.1 L 638.5 102.9 L 641.4 102.6 L 644.4 102.3 L 647.3 102.0 L 650.2 101.8 L 653.1 101.5 L 656.0 101.2" fill="none" stroke="#1a1917" stroke-width="2.4" stroke-linejoin="round" stroke-linecap="round"/></svg>