<svg xmlns="http://www.w3.org/2000/svg" viewBox="0 0 680 440" role="img" aria-label="Chart of actual EV versus sun elevation, showing the divergence from Sunny 16's flat EV 15 assumption."><rect width="680" height="440" fill="#f5f4f1"/><line x1="64" y1="28" x2="86" y2="28" stroke="#9b9890" stroke-width="1.25" stroke-dasharray="3 4"/><text x="94" y="32" font-family="'DM Mono', ui-monospace, monospace" font-size="11" fill="#6b6860">Sunny 16 assumes</text><line x1="231.6" y1="28" x2="253.6" y2="28" stroke="#1a1917" stroke-width="2.4" /><text x="261.6" y="32" font-family="'DM Mono', ui-monospace, monospace" font-size="11" fill="#6b6860">Actual EV</text><g font-family="'DM Mono', ui-monospace, monospace" font-size="10" fill="#9b9890"><line x1="64" y1="384" x2="656" y2="384" stroke="#d8d6d1" stroke-width="0.5"/><text x="54" y="387" text-anchor="end">8</text><line x1="64" y1="303" x2="656" y2="303" stroke="#d8d6d1" stroke-width="0.5"/><text x="54" y="306" text-anchor="end">10</text><line x1="64" y1="222" x2="656" y2="222" stroke="#d8d6d1" stroke-width="0.5"/><text x="54" y="225" text-anchor="end">12</text><line x1="64" y1="141" x2="656" y2="141" stroke="#d8d6d1" stroke-width="0.5"/><text x="54" y="144" text-anchor="end">14</text><line x1="64" y1="60" x2="656" y2="60" stroke="#d8d6d1" stroke-width="0.5"/><text x="54" y="63" text-anchor="end">16</text><line x1="64" y1="60" x2="64" y2="384" stroke="#d8d6d1" stroke-width="0.5"/><text x="64" y="400" text-anchor="middle">5°</text><line x1="133.6470588235294" y1="60" x2="133.6470588235294" y2="384" stroke="#d8d6d1" stroke-width="0.5"/><text x="133.6470588235294" y="400" text-anchor="middle">15°</text><line x1="238.11764705882354" y1="60" x2="238.11764705882354" y2="384" stroke="#d8d6d1" stroke-width="0.5"/><text x="238.11764705882354" y="400" text-anchor="middle">30°</text><line x1="342.5882352941176" y1="60" x2="342.5882352941176" y2="384" stroke="#d8d6d1" stroke-width="0.5"/><text x="342.5882352941176" y="400" text-anchor="middle">45°</text><line x1="447.05882352941177" y1="60" x2="447.05882352941177" y2="384" stroke="#d8d6d1" stroke-width="0.5"/><text x="447.05882352941177" y="400" text-anchor="middle">60°</text><line x1="551.5294117647059" y1="60" x2="551.5294117647059" y2="384" stroke="#d8d6d1" stroke-width="0.5"/><text x="551.5294117647059" y="400" text-anchor="middle">75°</text><line x1="656" y1="60" x2="656" y2="384" stroke="#d8d6d1" stroke-width="0.5"/><text x="656" y="400" text-anchor="middle">90°</text></g><line x1="64" y1="60" x2="64" y2="384" stroke="#1a1917" stroke-width="1"/><line x1="64" y1="384" x2="656" y2="384" stroke="#1a1917" stroke-width="1"/><text x="360" y="426" text-anchor="middle" font-family="'DM Sans', system-ui, sans-serif" font-size="12" fill="#6b6860">Sun elevation above horizon</text><text x="20" y="222" transform="rotate(-90 20 222)" text-anchor="middle" font-family="'DM Sans', system-ui, sans-serif" font-size="12" fill="#6b6860">EV at ISO 100</text><line x1="64.0" y1="100.5" x2="656.0" y2="100.5" stroke="#9b9890" stroke-width="1.25" stroke-dasharray="3 4"/><path d="M 64.0 264.5 L 67.0 259.0 L 69.9 253.9 L 72.9 249.2 L 75.8 244.9 L 78.8 240.7 L 81.8 236.9 L 84.7 233.2 L 87.7 229.8 L 90.6 226.5 L 93.6 223.3 L 96.6 220.3 L 99.5 217.5 L 102.5 214.7 L 105.4 212.1 L 108.4 209.6 L 111.4 207.2 L 114.3 204.8 L 117.3 202.5 L 120.2 200.4 L 123.2 198.3 L 126.2 196.2 L 129.1 194.2 L 132.1 192.3 L 135.0 190.5 L 138.0 188.6 L 141.0 186.9 L 143.9 185.2 L 146.9 183.5 L 149.8 181.9 L 152.8 180.3 L 155.8 178.8 L 158.7 177.3 L 161.7 175.8 L 164.6 174.4 L 167.6 173.0 L 170.6 171.6 L 173.5 170.3 L 176.5 169.0 L 179.4 167.7 L 182.4 166.5 L 185.4 165.3 L 188.3 164.1 L 191.3 162.9 L 194.2 161.7 L 197.2 160.6 L 200.2 159.5 L 203.1 158.4 L 206.1 157.4 L 209.0 156.3 L 212.0 155.3 L 215.0 154.3 L 217.9 153.3 L 220.9 152.4 L 223.8 151.4 L 226.8 150.5 L 229.8 149.6 L 232.7 148.7 L 235.7 147.8 L 238.6 146.9 L 241.6 146.1 L 244.6 145.2 L 247.5 144.4 L 250.5 143.6 L 253.4 142.8 L 256.4 142.0 L 259.4 141.2 L 262.3 140.5 L 265.3 139.7 L 268.2 139.0 L 271.2 138.3 L 274.2 137.6 L 277.1 136.9 L 280.1 136.2 L 283.0 135.5 L 286.0 134.8 L 289.0 134.2 L 291.9 133.5 L 294.9 132.9 L 297.8 132.2 L 300.8 131.6 L 303.8 131.0 L 306.7 130.4 L 309.7 129.8 L 312.6 129.2 L 315.6 128.7 L 318.6 128.1 L 321.5 127.5 L 324.5 127.0 L 327.4 126.4 L 330.4 125.9 L 333.4 125.4 L 336.3 124.9 L 339.3 124.3 L 342.2 123.8 L 345.2 123.4 L 348.2 122.9 L 351.1 122.4 L 354.1 121.9 L 357.0 121.4 L 360.0 121.0 L 363.0 120.5 L 365.9 120.1 L 368.9 119.6 L 371.8 119.2 L 374.8 118.8 L 377.8 118.4 L 380.7 117.9 L 383.7 117.5 L 386.6 117.1 L 389.6 116.7 L 392.6 116.3 L 395.5 116.0 L 398.5 115.6 L 401.4 115.2 L 404.4 114.8 L 407.4 114.5 L 410.3 114.1 L 413.3 113.8 L 416.2 113.4 L 419.2 113.1 L 422.2 112.8 L 425.1 112.4 L 428.1 112.1 L 431.0 111.8 L 434.0 111.5 L 437.0 111.2 L 439.9 110.9 L 442.9 110.6 L 445.8 110.3 L 448.8 110.0 L 451.8 109.7 L 454.7 109.4 L 457.7 109.2 L 460.6 108.9 L 463.6 108.6 L 466.6 108.4 L 469.5 108.1 L 472.5 107.9 L 475.4 107.6 L 478.4 107.4 L 481.4 107.2 L 484.3 106.9 L 487.3 106.7 L 490.2 106.5 L 493.2 106.3 L 496.2 106.0 L 499.1 105.8 L 502.1 105.6 L 505.0 105.4 L 508.0 105.2 L 511.0 105.0 L 513.9 104.9 L 516.9 104.7 L 519.8 104.5 L 522.8 104.3 L 525.8 104.1 L 528.7 104.0 L 531.7 103.8 L 534.6 103.7 L 537.6 103.5 L 540.6 103.4 L 543.5 103.2 L 546.5 103.1 L 549.4 102.9 L 552.4 102.8 L 555.4 102.7 L 558.3 102.5 L 561.3 102.4 L 564.2 102.3 L 567.2 102.2 L 570.2 102.1 L 573.1 102.0 L 576.1 101.9 L 579.0 101.8 L 582.0 101.7 L 585.0 101.6 L 587.9 101.5 L 590.9 101.4 L 593.8 101.3 L 596.8 101.2 L 599.8 101.2 L 602.7 101.1 L 605.7 101.0 L 608.6 101.0 L 611.6 100.9 L 614.6 100.9 L 617.5 100.8 L 620.5 100.8 L 623.4 100.7 L 626.4 100.7 L 629.4 100.6 L 632.3 100.6 L 635.3 100.6 L 638.2 100.6 L 641.2 100.5 L 644.2 100.5 L 647.1 100.5 L 650.1 100.5 L 653.0 100.5 L 656.0 100.5" fill="none" stroke="#1a1917" stroke-width="2.4" stroke-linejoin="round" stroke-linecap="round"/><circle cx="447.1" cy="110.2" r="3" fill="#1a1917"/><text x="453.1" y="104.2" font-family="'DM Mono', ui-monospace, monospace" font-size="10" fill="#6b6860">summer noon</text><circle cx="238.1" cy="147.1" r="3" fill="#1a1917"/><text x="244.1" y="141.1" font-family="'DM Mono', ui-monospace, monospace" font-size="10" fill="#6b6860">late afternoon</text><circle cx="133.6" cy="191.3" r="3" fill="#1a1917"/><text x="139.6" y="185.3" font-family="'DM Mono', ui-monospace, monospace" font-size="10" fill="#6b6860">golden hour</text></svg>